<svg version="1.0" xmlns="http://www.w3.org/2000/svg" viewBox="0 0 1200 1200" preserveAspectRatio="xMidYMid meet">
<g transform="translate(0,1200) scale(0.1,-0.1)" fill="currentColor" stroke="none">
<path d="M6851 11149 c-253 -254 -461 -465 -461 -469 0 -10 921 -930 930 -930
10 0 930 920 930 930 0 10 -919 930 -929 930 -5 0 -216 -208 -470 -461z"/>
<path d="M4395 11030 c-11 -4 -31 -20 -45 -35 l-25 -27 0 -649 0 -649 33 -32
32 -33 218 -6 c162 -5 231 -11 272 -24 216 -67 326 -214 377 -504 26 -148 23
-588 -5 -823 -12 -98 -26 -207 -33 -243 l-11 -64 -36 16 c-549 242 -976 265
-1272 68 -129 -86 -197 -189 -304 -463 -67 -169 -265 -671 -464 -1177 -82
-209 -385 -976 -672 -1705 -287 -729 -653 -1656 -812 -2060 -159 -404 -326
-827 -370 -940 -45 -113 -118 -299 -164 -414 -46 -115 -82 -211 -80 -214 4 -3
459 151 1356 458 179 62 415 143 525 180 110 37 524 179 920 315 913 313 1321
453 1810 620 215 73 707 242 1095 375 388 133 824 282 970 332 289 98 325 114
417 181 196 145 294 413 264 724 -14 142 -49 303 -96 443 -19 57 -33 105 -31
107 11 12 621 14 771 4 535 -38 899 -150 1011 -312 28 -41 29 -47 34 -185 l5
-144 33 -32 32 -33 530 0 530 0 32 33 33 33 -3 232 c-2 264 -12 343 -54 477
-130 407 -493 746 -1021 954 -345 136 -698 195 -1087 183 -464 -16 -899 -105
-1274 -263 l-79 -34 -16 23 c-93 133 -327 431 -475 601 -27 31 -47 58 -45 60
19 15 471 132 779 201 113 25 266 66 340 91 151 50 398 168 505 240 340 229
508 510 507 849 0 115 -20 192 -82 316 l-38 76 176 6 c190 6 290 24 417 71
194 74 341 200 420 361 63 127 67 159 74 490 l6 300 30 54 c32 59 86 104 163
135 38 15 84 20 243 25 162 5 200 9 222 24 59 38 58 29 55 592 l-3 515 -33 32
-32 33 -268 3 c-357 4 -516 -12 -720 -74 -311 -94 -606 -335 -742 -604 -75
-149 -135 -359 -165 -580 -8 -63 -18 -129 -20 -146 l-5 -31 -163 -6 c-215 -8
-329 -35 -476 -112 -240 -127 -399 -376 -462 -731 -18 -100 -22 -171 -26 -445
l-5 -325 -117 -38 c-406 -132 -850 -355 -1134 -571 -132 -100 -110 -99 -213
-12 -132 113 -370 294 -530 403 l-140 95 47 92 c334 650 486 1499 369 2066
-28 131 -92 319 -149 432 -240 478 -651 759 -1193 818 -113 13 -434 14 -463 1z
m144 -3369 c54 -11 148 -36 208 -56 140 -47 363 -144 363 -159 0 -20 -70 -287
-116 -445 -51 -173 -51 -201 -3 -247 25 -24 39 -29 79 -29 46 0 53 3 106 55
76 74 195 216 280 333 38 53 72 96 75 96 31 4 669 -478 669 -505 0 -4 -17 -27
-38 -53 -64 -77 -100 -131 -373 -556 -249 -388 -264 -413 -264 -457 0 -41 5
-52 33 -80 27 -28 40 -33 80 -33 45 0 61 10 405 248 445 308 508 350 603 394
l76 35 30 -29 c30 -28 240 -266 329 -373 25 -30 92 -116 148 -190 93 -123 100
-136 84 -147 -10 -7 -54 -39 -98 -71 -44 -31 -168 -143 -275 -249 -107 -105
-248 -242 -313 -304 -65 -62 -125 -125 -133 -140 -31 -61 -2 -138 63 -166 36
-14 42 -13 177 26 166 48 353 90 561 125 149 25 457 67 461 63 2 -1 21 -49 43
-105 105 -270 142 -488 106 -627 -20 -75 -52 -117 -112 -146 -43 -22 -61 -24
-178 -23 -112 1 -146 5 -250 33 -545 145 -1246 602 -1888 1231 -383 375 -643
684 -902 1075 -367 551 -556 1077 -479 1334 42 142 193 190 443 142z"/>
<path d="M1811 10189 c-253 -254 -461 -465 -461 -469 0 -9 921 -930 930 -930
10 0 930 920 930 930 0 10 -920 930 -930 930 -4 0 -215 -208 -469 -461z"/>
<path d="M10378 7620 l-298 -299 301 -300 300 -301 294 297 c162 163 295 300
295 303 0 6 -588 601 -593 599 -1 0 -136 -135 -299 -299z"/>
<path d="M1018 7380 l-297 -299 300 -300 299 -301 295 297 c162 163 295 300
295 303 0 7 -588 601 -593 599 -1 0 -136 -135 -299 -299z"/>
<path d="M8531 2509 c-253 -254 -461 -465 -461 -469 0 -9 921 -930 930 -930
10 0 930 921 930 931 0 10 -919 929 -929 929 -5 0 -216 -208 -470 -461z"/>
</g>
</svg>
