<svg xmlns="http://www.w3.org/2000/svg" viewBox="-267.41 -1101.91 1439.82 1439.82"><path fill="#8b5cf6" d="M187 0Q139 0 105-44.50Q71-89 71-178Q71-336 206-584Q177-592 155-592Q106-592 72.50-566Q39-540 39-502Q39-481 50-466.50Q61-452 77-452Q81-440 81-433Q81-409 64-383Q47-357 16.50-339.50Q-14-322-54-322Q-113-322-146-365Q-179-408-179-469Q-179-543-132.50-606Q-86-669-3.50-706.50Q79-744 181-744Q259-744 291.50-720.50Q324-697 324-649Q324-622 314-580L308-555Q277-418 266-363Q255-308 255-278Q255-254 262-243.50Q269-233 285-233Q312-233 336.50-283Q361-333 394-452Q406-495 420-555Q436-621 447-653.50Q458-686 477.50-705Q497-724 530-724Q565-724 590.50-704Q616-684 616-649Q616-623 606.50-598.50Q597-574 577-537Q559-501 548.50-476.50Q538-452 532-424Q519-356 519-311Q519-273 527-253Q535-233 547-233Q571-233 587.50-267.50Q604-302 627-378L636-407Q693-593 769.50-678.50Q846-764 946-764Q1012-764 1048-730.50Q1084-697 1084-650Q1084-605 1052.50-572Q1021-539 967-539Q948-539 937.50-542Q927-545 916-551Q914-552 905-555.50Q896-559 883-559Q840-559 813.50-526Q787-493 771.50-443.50Q756-394 738-309Q716-208 696-147Q676-86 636.50-43Q597 0 532 0Q483 0 451-34Q419-68 419-141Q419-175 424-202L425-210Q425-220 421-225Q417-230 410-230Q403-230 395.50-223Q388-216 384-202Q352-95 298-47.50Q244 0 187 0"/></svg>
